<?xml version="1.0" encoding="UTF-8" standalone="no"?>
<!-- Created with Inkscape (http://www.inkscape.org/) -->

<svg
   width="352"
   height="190"
   viewBox="0 0 93.133332 50.270835"
   version="1.1"
   id="svg5"
   inkscape:version="1.1.1 (3bf5ae0d25, 2021-09-20)"
   sodipodi:docname="logo_v0.svg"
   xmlns:inkscape="http://www.inkscape.org/namespaces/inkscape"
   xmlns:sodipodi="http://sodipodi.sourceforge.net/DTD/sodipodi-0.dtd"
   xmlns="http://www.w3.org/2000/svg"
   xmlns:svg="http://www.w3.org/2000/svg">
  <sodipodi:namedview
     id="namedview7"
     pagecolor="#ffffff"
     bordercolor="#666666"
     borderopacity="1.0"
     inkscape:pageshadow="2"
     inkscape:pageopacity="0.0"
     inkscape:pagecheckerboard="0"
     inkscape:document-units="mm"
     showgrid="false"
     inkscape:zoom="1.3001718"
     inkscape:cx="239.58373"
     inkscape:cy="176.51514"
     inkscape:window-width="1366"
     inkscape:window-height="740"
     inkscape:window-x="1366"
     inkscape:window-y="0"
     inkscape:window-maximized="1"
     inkscape:current-layer="layer1"
     units="px"
     width="350px" />
  <defs
     id="defs2" />
  <g
     inkscape:label="Camada 1"
     inkscape:groupmode="layer"
     id="layer1">
    <text
       xml:space="preserve"
       style="font-style:normal;font-variant:normal;font-weight:normal;font-stretch:normal;font-size:20.803px;line-height:1.25;font-family:Autography;-inkscape-font-specification:'Autography, Normal';font-variant-ligatures:normal;font-variant-caps:normal;font-variant-numeric:normal;font-variant-east-asian:normal;fill:#000000;fill-opacity:1;stroke:none;stroke-width:0.520077"
       x="246.78069"
       y="226.164"
       id="text9406"><tspan
         sodipodi:role="line"
         id="tspan9404"
         style="font-style:normal;font-variant:normal;font-weight:normal;font-stretch:normal;font-size:20.803px;font-family:Autography;-inkscape-font-specification:'Autography, Normal';font-variant-ligatures:normal;font-variant-caps:normal;font-variant-numeric:normal;font-variant-east-asian:normal;stroke-width:0.520077"
         x="246.78069"
         y="226.164">Piratas do Karibe</tspan></text>
    <g
       id="g1287"
       transform="translate(98.761042,-8.7366504)">
      <g
         id="g1463">
        <rect
           style="fill:#008000;stroke:none;stroke-width:0.1521"
           id="rect1096"
           width="18.848612"
           height="51.328598"
           x="134.01202"
           y="20.040934" />
        <rect
           style="fill:none;stroke:#000000;stroke-width:0.162"
           id="rect1164"
           width="56.875427"
           height="51.328594"
           x="134.01202"
           y="20.040934" />
        <rect
           style="fill:#aa0000;stroke:none;stroke-width:0.1521"
           id="rect1264"
           width="18.848612"
           height="51.328598"
           x="172.03883"
           y="20.040934" />
        <rect
           style="fill:#ffffff;stroke:none;stroke-width:0.1521"
           id="rect1439"
           width="18.848612"
           height="51.328598"
           x="152.86064"
           y="20.040934" />
      </g>
      <g
         id="g1473">
        <rect
           style="fill:#008000;stroke:none;stroke-width:0.1521"
           id="rect1465"
           width="18.848612"
           height="51.328598"
           x="134.01202"
           y="20.040934" />
        <rect
           style="fill:none;stroke:#000000;stroke-width:0.162"
           id="rect1467"
           width="56.875427"
           height="51.328594"
           x="134.01202"
           y="20.040934" />
        <rect
           style="fill:#aa0000;stroke:none;stroke-width:0.1521"
           id="rect1469"
           width="18.848612"
           height="51.328598"
           x="172.03883"
           y="20.040934" />
        <rect
           style="fill:#ffffff;stroke:none;stroke-width:0.1521"
           id="rect1471"
           width="18.848612"
           height="51.328598"
           x="152.86064"
           y="20.040934" />
      </g>
    </g>
    <g
       id="g1313"
       transform="matrix(6.1411932e-4,0.00386879,0.00386879,-6.1411932e-4,252.74466,71.527926)">
      <path
         d="m 7473.78,11427.6 c -51.89,41.2 -127.37,32.6 -168.61,-19.3 -102.27,-128.7 -203.34,-261.3 -300.41,-394 C 6165.82,9866.6 5749.82,8885.5 5642.3,8612.1 c -24.25,-61.6 6.08,-131.3 67.76,-155.5 14.42,-5.7 29.28,-8.4 43.89,-8.4 47.88,0 93.12,28.9 111.7,76.1 104.86,266.6 510.87,1223.9 1332.86,2348.3 95.17,130.2 194.27,260.2 294.55,386.4 41.24,51.9 32.6,127.4 -19.28,168.6"
         style="fill:#000000;fill-opacity:1;fill-rule:nonzero;stroke:none"
         id="path1297" />
      <path
         d="m 7873.65,11714.3 c 40.07,45.5 80.95,91.3 121.53,136 44.52,49.1 40.83,125 -8.27,169.5 -49.09,44.6 -124.98,40.9 -169.5,-8.2 -41.4,-45.7 -83.12,-92.4 -123.99,-138.9 -43.77,-49.7 -38.89,-125.6 10.88,-169.3 22.79,-20.1 51.05,-29.9 79.19,-29.9 33.3,0 66.44,13.8 90.16,40.8"
         style="fill:#000000;fill-opacity:1;fill-rule:nonzero;stroke:none"
         id="path1299" />
      <path
         d="m 11264.2,10787.8 c -208.9,0 -405.3,81.4 -553,229.1 -147.7,147.7 -229.1,344.1 -229.1,553 0,208.9 81.4,405.3 229.1,553 147.7,147.8 344.1,229.1 553,229.1 208.9,0 405.3,-81.3 553,-229.1 147.8,-147.7 229.1,-344.1 229.1,-553 0,-208.9 -81.3,-405.3 -229.1,-553 -147.7,-147.7 -344.1,-229.1 -553,-229.1 z m 1022.1,782.1 c 0,273 -106.3,529.7 -299.4,722.7 -193,193.1 -449.7,299.4 -722.7,299.4 -273,0 -529.7,-106.3 -722.7,-299.4 -193.1,-193 -299.4,-449.7 -299.4,-722.7 0,-273 106.3,-529.7 299.4,-722.7 193,-193.1 449.7,-299.4 722.7,-299.4 273,0 529.7,106.3 722.7,299.4 193.1,193 299.4,449.7 299.4,722.7"
         style="fill:#000000;fill-opacity:1;fill-rule:nonzero;stroke:none"
         id="path1301" />
      <path
         d="m 9408.57,10639.4 c -58.01,32 -131.02,11 -163.06,-47 l -306.52,-555.1 c -32.03,-58 -10.97,-131 47.04,-163 18.39,-10.2 38.28,-15 57.91,-15 42.27,0 83.27,22.4 105.15,62 l 306.52,555.1 c 32.03,58 10.97,131 -47.04,163"
         style="fill:#000000;fill-opacity:1;fill-rule:nonzero;stroke:none"
         id="path1303" />
      <path
         d="m 10642.8,8986.8 -546.7,248.5 c -60.3,27.4 -131.49,0.8 -158.91,-59.6 -27.43,-60.3 -0.75,-131.5 59.58,-158.9 l 546.73,-248.5 c 16.1,-7.3 33,-10.8 49.6,-10.8 45.6,0 89.2,26.2 109.3,70.4 27.5,60.3 0.8,131.5 -59.6,158.9"
         style="fill:#000000;fill-opacity:1;fill-rule:nonzero;stroke:none"
         id="path1305" />
      <path
         d="m 12142.5,7822.9 -662.7,-364.5 c -58.1,-31.9 -79.3,-104.9 -47.4,-163 21.9,-39.7 62.9,-62.2 105.3,-62.2 19.5,0 39.4,4.8 57.7,14.9 l 662.8,364.5 c 58,32 79.2,104.9 47.3,163 -32,58.1 -105,79.3 -163,47.3"
         style="fill:#000000;fill-opacity:1;fill-rule:nonzero;stroke:none"
         id="path1307" />
      <path
         d="m 12264.8,9921.2 c -64.1,17.4 -129.9,-20.5 -147.2,-84.5 l -165.7,-613 c -17.3,-64 20.6,-129.9 84.6,-147.2 10.5,-2.8 21,-4.2 31.3,-4.2 52.9,0 101.4,35.2 115.8,88.7 l 165.7,613.1 c 17.3,63.9 -20.6,129.8 -84.5,147.1"
         style="fill:#000000;fill-opacity:1;fill-rule:nonzero;stroke:none"
         id="path1309" />
      <path
         d="m 15130.9,5343.2 c -99.8,-99.9 -238.3,-129.5 -370.2,-79.4 l -411.9,156.4 c -5.7,262.2 -112,513.6 -299.1,700.7 -193.1,193.1 -449.7,299.4 -722.7,299.4 -273,0 -529.7,-106.3 -722.7,-299.4 -9.1,-9.1 -18.1,-18.5 -26.9,-28 L 9432.58,7287.2 c 177.43,382.9 101.12,847.9 -204.27,1153.3 -398.51,398.5 -1046.94,398.5 -1445.48,0 -121.39,-121.4 -208.42,-267.9 -256.43,-429.4 l -742.6,282 c 141.44,334.5 517.38,1140 1201.45,2066.6 785.53,1064 2143.45,2493 4190.75,3343.9 l 1669.8,-4397 c -100.4,-49.2 -191.7,-114.5 -272.3,-195.1 -398.5,-398.5 -398.5,-1046.9 0,-1445.5 196,-196 456.4,-299.9 722.1,-299.9 91.2,0 183,12.3 273.1,37.3 l 641.7,-1689.9 c 50.1,-132 20.4,-270.5 -79.5,-370.3 z m -2305.2,655.4 c 140.5,117.7 315.9,181.7 501.3,181.7 208.9,0 405.3,-81.4 553,-229.1 119.3,-119.3 195.7,-272.7 220.4,-436.6 z m -3618.01,1374 -474.81,180.4 -981.46,372.7 c 35.55,130.1 104.04,248 201.12,345.1 304.93,304.9 801.11,304.9 1106.06,0 237.9,-237.9 294.35,-602.4 149.09,-898.2 z m -3045.63,472.6 c -154.88,-73.3 -329.04,-81.9 -490.4,-24.2 -161.36,57.6 -290.6,174.7 -363.92,329.6 -73.32,154.8 -81.94,329 -24.26,490.4 17.25,48.2 434.21,1198.5 1442.14,2577.3 590.55,807.9 1265.18,1531.7 2005.15,2151.3 928.69,777.7 1962.63,1392.1 3073.03,1826.2 75.5,29.5 153.6,43.5 230.7,43.5 252.2,0 493.4,-149.7 595.1,-394.4 0,0 0,-0.1 0,-0.1 1.8,-4.3 3.6,-8.6 5.3,-13 128.8,-329.4 -34.5,-702.2 -363.9,-831 -22.9,-8.9 -45.7,-18.1 -68.5,-27.2 -0.2,-0.1 -0.4,-0.1 -0.6,-0.2 -0.4,-0.1 -0.7,-0.3 -1.1,-0.5 -946.8,-378.7 -1831.3,-908.1 -2630.16,-1574.4 -655.22,-546.6 -1254.66,-1186 -1781.68,-1900.6 -919.07,-1246.2 -1293.63,-2278.4 -1297.3,-2288.7 -57.68,-161.4 -174.73,-290.7 -329.6,-364 z M 13931.5,9081 14287.9,8142.7 14483,7629 c -263.3,-65 -543.7,10.6 -739.8,206.7 -304.9,305 -304.9,801.2 0,1106.1 56.3,56.3 119.3,102.9 188.3,139.2 z m 1503.2,-3282.3 -682.8,1798.3 -640.6,1686.5 -1712.9,4510.6 c 425.7,190.8 631.7,686 460,1125.2 -2.3,5.9 -4.7,11.8 -7.2,17.7 -88.8,213.8 -255.2,381.5 -468.4,472.3 -213.5,91 -450.2,94.5 -666.3,10 C 10581.7,14975.7 9525.36,14348 8576.68,13553.6 7821.85,12921.5 7133.87,12183.5 6531.87,11360 5503.63,9953.4 5075.21,8771.3 5057.48,8721.7 c -79.26,-221.7 -67.42,-461 33.34,-673.8 100.75,-212.9 278.35,-373.7 500.07,-452.9 96.97,-34.7 197.26,-51.9 297.27,-51.9 128.68,0 256.84,28.5 376.59,85.2 193.89,91.8 344.42,247.5 429.61,442.1 l 876.15,-332.8 c 0.03,0 0.05,0 0.08,0 l 510.83,-194 4489.88,-1705 v -0.1 l 250.4,-95.1 1853.7,-703.9 c 69.6,-26.5 141.2,-39.4 211.9,-39.4 152.2,0 299.9,59.9 413.3,173.3 166.1,166.1 217.5,405.7 134.1,625.3"
         style="fill:#000000;fill-opacity:1;fill-rule:nonzero;stroke:none"
         id="path1311" />
    </g>
    <text
       xml:space="preserve"
       style="font-style:normal;font-variant:normal;font-weight:normal;font-stretch:normal;font-size:20.803px;line-height:1.25;font-family:Autography;-inkscape-font-specification:'Autography, Normal';font-variant-ligatures:normal;font-variant-caps:normal;font-variant-numeric:normal;font-variant-east-asian:normal;fill:#000000;fill-opacity:1;stroke:none;stroke-width:0.520077"
       x="231.11115"
       y="96.010712"
       id="text1317"><tspan
         sodipodi:role="line"
         id="tspan1315"
         style="font-style:normal;font-variant:normal;font-weight:normal;font-stretch:normal;font-size:20.803px;font-family:Autography;-inkscape-font-specification:'Autography, Normal';font-variant-ligatures:normal;font-variant-caps:normal;font-variant-numeric:normal;font-variant-east-asian:normal;stroke-width:0.520077"
         x="231.11115"
         y="96.010712">Piratas    </tspan></text>
    <text
       xml:space="preserve"
       style="font-style:normal;font-variant:normal;font-weight:normal;font-stretch:normal;font-size:20.803px;line-height:1.25;font-family:Autography;-inkscape-font-specification:'Autography, Normal';font-variant-ligatures:normal;font-variant-caps:normal;font-variant-numeric:normal;font-variant-east-asian:normal;fill:#000000;fill-opacity:1;stroke:none;stroke-width:0.520077"
       x="231.72633"
       y="124.52763"
       id="text1321"><tspan
         sodipodi:role="line"
         id="tspan1319"
         style="font-style:normal;font-variant:normal;font-weight:normal;font-stretch:normal;font-size:20.803px;font-family:Autography;-inkscape-font-specification:'Autography, Normal';font-variant-ligatures:normal;font-variant-caps:normal;font-variant-numeric:normal;font-variant-east-asian:normal;stroke-width:0.520077"
         x="231.72633"
         y="124.52763">Karibe</tspan></text>
    <text
       xml:space="preserve"
       style="font-style:normal;font-variant:normal;font-weight:normal;font-stretch:normal;font-size:20.803px;line-height:1.25;font-family:Autography;-inkscape-font-specification:'Autography, Normal';font-variant-ligatures:normal;font-variant-caps:normal;font-variant-numeric:normal;font-variant-east-asian:normal;fill:#000000;fill-opacity:1;stroke:none;stroke-width:0.520077"
       x="242.32858"
       y="112.42828"
       id="text1325"><tspan
         sodipodi:role="line"
         id="tspan1323"
         style="font-style:normal;font-variant:normal;font-weight:normal;font-stretch:normal;font-size:20.803px;font-family:Autography;-inkscape-font-specification:'Autography, Normal';font-variant-ligatures:normal;font-variant-caps:normal;font-variant-numeric:normal;font-variant-east-asian:normal;stroke-width:0.520077"
         x="242.32858"
         y="112.42828">Do</tspan></text>
    <g
       id="g1575"
       transform="translate(174.15509,128.16152)">
      <g
         id="g1563"
         transform="translate(-58.263159,-3.8368967)">
        <g
           id="g3656">
          <rect
             style="fill:#008000;stroke:none;stroke-width:0.1521"
             id="rect1555"
             width="18.848612"
             height="51.328598"
             x="134.01202"
             y="20.040934" />
          <rect
             style="fill:none;stroke:#000000;stroke-width:0.162"
             id="rect1557"
             width="56.875427"
             height="51.328594"
             x="134.01202"
             y="20.040934" />
          <rect
             style="fill:#aa0000;stroke:none;stroke-width:0.1521"
             id="rect1559"
             width="18.848612"
             height="51.328598"
             x="172.03883"
             y="20.040934" />
          <rect
             style="fill:#ffffff;stroke:none;stroke-width:0.153424"
             id="rect3428"
             width="19.178196"
             height="51.328598"
             x="152.86064"
             y="20.040934" />
        </g>
      </g>
    </g>
    <g
       id="g3705"
       transform="matrix(1.0137014,0,0,1.0137014,-54.403103,-84.484158)">
      <g
         id="g3302"
         transform="matrix(6.1411932e-4,0.00386879,0.00386879,-6.1411932e-4,77.956867,74.155006)">
        <path
           d="m 7473.78,11427.6 c -51.89,41.2 -127.37,32.6 -168.61,-19.3 -102.27,-128.7 -203.34,-261.3 -300.41,-394 C 6165.82,9866.6 5749.82,8885.5 5642.3,8612.1 c -24.25,-61.6 6.08,-131.3 67.76,-155.5 14.42,-5.7 29.28,-8.4 43.89,-8.4 47.88,0 93.12,28.9 111.7,76.1 104.86,266.6 510.87,1223.9 1332.86,2348.3 95.17,130.2 194.27,260.2 294.55,386.4 41.24,51.9 32.6,127.4 -19.28,168.6"
           style="fill:#000000;fill-opacity:1;fill-rule:nonzero;stroke:none"
           id="path3304" />
        <path
           d="m 7873.65,11714.3 c 40.07,45.5 80.95,91.3 121.53,136 44.52,49.1 40.83,125 -8.27,169.5 -49.09,44.6 -124.98,40.9 -169.5,-8.2 -41.4,-45.7 -83.12,-92.4 -123.99,-138.9 -43.77,-49.7 -38.89,-125.6 10.88,-169.3 22.79,-20.1 51.05,-29.9 79.19,-29.9 33.3,0 66.44,13.8 90.16,40.8"
           style="fill:#000000;fill-opacity:1;fill-rule:nonzero;stroke:none"
           id="path3306" />
        <path
           d="m 11264.2,10787.8 c -208.9,0 -405.3,81.4 -553,229.1 -147.7,147.7 -229.1,344.1 -229.1,553 0,208.9 81.4,405.3 229.1,553 147.7,147.8 344.1,229.1 553,229.1 208.9,0 405.3,-81.3 553,-229.1 147.8,-147.7 229.1,-344.1 229.1,-553 0,-208.9 -81.3,-405.3 -229.1,-553 -147.7,-147.7 -344.1,-229.1 -553,-229.1 z m 1022.1,782.1 c 0,273 -106.3,529.7 -299.4,722.7 -193,193.1 -449.7,299.4 -722.7,299.4 -273,0 -529.7,-106.3 -722.7,-299.4 -193.1,-193 -299.4,-449.7 -299.4,-722.7 0,-273 106.3,-529.7 299.4,-722.7 193,-193.1 449.7,-299.4 722.7,-299.4 273,0 529.7,106.3 722.7,299.4 193.1,193 299.4,449.7 299.4,722.7"
           style="fill:#000000;fill-opacity:1;fill-rule:nonzero;stroke:none"
           id="path3308" />
        <path
           d="m 9408.57,10639.4 c -58.01,32 -131.02,11 -163.06,-47 l -306.52,-555.1 c -32.03,-58 -10.97,-131 47.04,-163 18.39,-10.2 38.28,-15 57.91,-15 42.27,0 83.27,22.4 105.15,62 l 306.52,555.1 c 32.03,58 10.97,131 -47.04,163"
           style="fill:#000000;fill-opacity:1;fill-rule:nonzero;stroke:none"
           id="path3310" />
        <path
           d="m 10642.8,8986.8 -546.7,248.5 c -60.3,27.4 -131.49,0.8 -158.91,-59.6 -27.43,-60.3 -0.75,-131.5 59.58,-158.9 l 546.73,-248.5 c 16.1,-7.3 33,-10.8 49.6,-10.8 45.6,0 89.2,26.2 109.3,70.4 27.5,60.3 0.8,131.5 -59.6,158.9"
           style="fill:#000000;fill-opacity:1;fill-rule:nonzero;stroke:none"
           id="path3312" />
        <path
           d="m 12142.5,7822.9 -662.7,-364.5 c -58.1,-31.9 -79.3,-104.9 -47.4,-163 21.9,-39.7 62.9,-62.2 105.3,-62.2 19.5,0 39.4,4.8 57.7,14.9 l 662.8,364.5 c 58,32 79.2,104.9 47.3,163 -32,58.1 -105,79.3 -163,47.3"
           style="fill:#000000;fill-opacity:1;fill-rule:nonzero;stroke:none"
           id="path3314" />
        <path
           d="m 12264.8,9921.2 c -64.1,17.4 -129.9,-20.5 -147.2,-84.5 l -165.7,-613 c -17.3,-64 20.6,-129.9 84.6,-147.2 10.5,-2.8 21,-4.2 31.3,-4.2 52.9,0 101.4,35.2 115.8,88.7 l 165.7,613.1 c 17.3,63.9 -20.6,129.8 -84.5,147.1"
           style="fill:#000000;fill-opacity:1;fill-rule:nonzero;stroke:none"
           id="path3316" />
        <path
           d="m 15130.9,5343.2 c -99.8,-99.9 -238.3,-129.5 -370.2,-79.4 l -411.9,156.4 c -5.7,262.2 -112,513.6 -299.1,700.7 -193.1,193.1 -449.7,299.4 -722.7,299.4 -273,0 -529.7,-106.3 -722.7,-299.4 -9.1,-9.1 -18.1,-18.5 -26.9,-28 L 9432.58,7287.2 c 177.43,382.9 101.12,847.9 -204.27,1153.3 -398.51,398.5 -1046.94,398.5 -1445.48,0 -121.39,-121.4 -208.42,-267.9 -256.43,-429.4 l -742.6,282 c 141.44,334.5 517.38,1140 1201.45,2066.6 785.53,1064 2143.45,2493 4190.75,3343.9 l 1669.8,-4397 c -100.4,-49.2 -191.7,-114.5 -272.3,-195.1 -398.5,-398.5 -398.5,-1046.9 0,-1445.5 196,-196 456.4,-299.9 722.1,-299.9 91.2,0 183,12.3 273.1,37.3 l 641.7,-1689.9 c 50.1,-132 20.4,-270.5 -79.5,-370.3 z m -2305.2,655.4 c 140.5,117.7 315.9,181.7 501.3,181.7 208.9,0 405.3,-81.4 553,-229.1 119.3,-119.3 195.7,-272.7 220.4,-436.6 z m -3618.01,1374 -474.81,180.4 -981.46,372.7 c 35.55,130.1 104.04,248 201.12,345.1 304.93,304.9 801.11,304.9 1106.06,0 237.9,-237.9 294.35,-602.4 149.09,-898.2 z m -3045.63,472.6 c -154.88,-73.3 -329.04,-81.9 -490.4,-24.2 -161.36,57.6 -290.6,174.7 -363.92,329.6 -73.32,154.8 -81.94,329 -24.26,490.4 17.25,48.2 434.21,1198.5 1442.14,2577.3 590.55,807.9 1265.18,1531.7 2005.15,2151.3 928.69,777.7 1962.63,1392.1 3073.03,1826.2 75.5,29.5 153.6,43.5 230.7,43.5 252.2,0 493.4,-149.7 595.1,-394.4 0,0 0,-0.1 0,-0.1 1.8,-4.3 3.6,-8.6 5.3,-13 128.8,-329.4 -34.5,-702.2 -363.9,-831 -22.9,-8.9 -45.7,-18.1 -68.5,-27.2 -0.2,-0.1 -0.4,-0.1 -0.6,-0.2 -0.4,-0.1 -0.7,-0.3 -1.1,-0.5 -946.8,-378.7 -1831.3,-908.1 -2630.16,-1574.4 -655.22,-546.6 -1254.66,-1186 -1781.68,-1900.6 -919.07,-1246.2 -1293.63,-2278.4 -1297.3,-2288.7 -57.68,-161.4 -174.73,-290.7 -329.6,-364 z M 13931.5,9081 14287.9,8142.7 14483,7629 c -263.3,-65 -543.7,10.6 -739.8,206.7 -304.9,305 -304.9,801.2 0,1106.1 56.3,56.3 119.3,102.9 188.3,139.2 z m 1503.2,-3282.3 -682.8,1798.3 -640.6,1686.5 -1712.9,4510.6 c 425.7,190.8 631.7,686 460,1125.2 -2.3,5.9 -4.7,11.8 -7.2,17.7 -88.8,213.8 -255.2,381.5 -468.4,472.3 -213.5,91 -450.2,94.5 -666.3,10 C 10581.7,14975.7 9525.36,14348 8576.68,13553.6 7821.85,12921.5 7133.87,12183.5 6531.87,11360 5503.63,9953.4 5075.21,8771.3 5057.48,8721.7 c -79.26,-221.7 -67.42,-461 33.34,-673.8 100.75,-212.9 278.35,-373.7 500.07,-452.9 96.97,-34.7 197.26,-51.9 297.27,-51.9 128.68,0 256.84,28.5 376.59,85.2 193.89,91.8 344.42,247.5 429.61,442.1 l 876.15,-332.8 c 0.03,0 0.05,0 0.08,0 l 510.83,-194 4489.88,-1705 v -0.1 l 250.4,-95.1 1853.7,-703.9 c 69.6,-26.5 141.2,-39.4 211.9,-39.4 152.2,0 299.9,59.9 413.3,173.3 166.1,166.1 217.5,405.7 134.1,625.3"
           style="fill:#000000;fill-opacity:1;fill-rule:nonzero;stroke:none"
           id="path3318" />
      </g>
      <g
         id="g2757"
         transform="translate(-37.255505,76.085238)">
        <g
           aria-label="Do"
           id="text2635"
           style="font-size:20.803px;line-height:1.25;font-family:Autography;-inkscape-font-specification:'Autography, Normal';stroke-width:0.520077" />
        <g
           id="g2645">
          <g
             aria-label="Piratas"
             id="text2639"
             style="font-size:20.803px;line-height:1.25;font-family:Autography;-inkscape-font-specification:'Autography, Normal';stroke-width:0.520077" />
          <g
             aria-label="Karibe"
             id="text2643"
             style="font-size:20.803px;line-height:1.25;font-family:Autography;-inkscape-font-specification:'Autography, Normal';stroke-width:0.520077">
            <path
               id="path2805"
               d="m 137.54685,51.652411 c 1.4354,-0.08321 2.7668,-1.102559 3.34928,-2.309133 0.29124,-0.582484 0.37445,-1.060953 -0.10402,-0.561681 -0.87372,0.915332 -2.32993,2.371542 -4.28541,2.371542 -0.72811,0 -1.45621,-0.665696 -1.51862,-1.060953 0.7281,0 1.62263,-0.499272 1.89307,-1.164968 0.22883,-0.603287 -0.37445,-1.227377 -1.01935,-1.227377 -1.01934,0.04161 -1.64343,0.977741 -1.64343,1.893073 0,0.20803 0.0416,0.41606 0.10401,0.603287 0.41606,1.289786 1.99709,1.518619 3.22447,1.45621 z m -1.3522,-3.245268 c 0.22883,0.228833 -0.35365,0.790514 -1.22738,1.185771 -0.0208,-0.520075 0.79052,-1.622634 1.22738,-1.185771 z m -8.79963,3.557313 c 0.20803,0.104015 0.31204,0.04161 0.33284,0.04161 0.0416,-0.0208 0.0624,-0.06241 0.0832,-0.06241 0.0208,-0.06241 0.0624,-0.166424 0.0416,-0.312045 l 0.12482,-0.582484 0.0624,-0.20803 0.0416,0.0208 c 0.45766,0.312045 1.66424,0.374454 1.99708,0.312045 l 0.0832,-0.0208 h 0.16642 c 1.83066,-0.0208 3.30768,-0.811317 4.07739,-1.851467 0.18722,-0.270439 0.31204,-0.915332 0.10401,-0.707302 -0.7281,0.644893 -2.39234,1.581028 -3.41169,1.747452 l 0.14562,-0.332848 c 0.0832,-0.249636 0.14562,-0.540878 0.14562,-0.852923 0,-0.478469 -0.14562,-0.977741 -0.58248,-1.372998 l -0.10402,-0.08321 c -0.16642,-0.166424 -0.41606,-0.270439 -0.60328,-0.291242 -0.91534,-0.166424 -2.24673,1.560225 -2.60038,2.413148 -0.10401,-1.060953 -0.12482,-2.392345 -0.12482,-3.74454 0,-2.725193 0.0832,-5.471189 0.33285,-6.199294 0.0624,-0.124818 -0.0624,-0.332848 -0.22883,-0.457666 -0.20803,-0.124818 -0.41606,-0.124818 -0.47847,-0.0208 -0.27044,0.748908 -0.37445,3.203662 -0.37445,5.679219 v 0.665696 c 0,1.352195 0.0416,2.683587 0.0832,3.74454 l 0.16642,1.331392 c 0.0624,0.332848 0.10402,0.603287 0.18723,0.748908 0,0.0208 0,0.06241 0.0624,0.124818 0,0.0208 0.12482,0.166424 0.27044,0.270439 z m 0.81131,-1.539422 -0.0416,-0.0208 c 0.91533,-1.331392 1.45621,-2.163512 2.16351,-2.392345 h 0.0416 l 0.0624,0.08321 c 0.12482,0.124818 0.18723,0.332848 0.18723,0.62409 0,0.977741 -0.83212,1.830664 -1.78906,1.830664 -0.20803,0 -0.41606,-0.04161 -0.62409,-0.124818 z m -6.28249,0.499272 c 0.39526,0.436863 0.95694,0.561681 1.47702,0.540878 1.4354,-0.06241 3.32848,-1.705846 3.72373,-2.433951 0.24964,-0.457666 0.0416,-0.582484 -0.0416,-0.499272 -0.62409,0.62409 -2.82921,2.28833 -4.119,2.28833 -0.22883,0 -0.43686,-0.06241 -0.60328,-0.187227 -0.31205,-0.270439 0.10401,-2.621178 0.27044,-2.787602 0.0208,-0.104015 -0.10402,-0.270439 -0.33285,-0.353651 -0.24964,-0.06241 -0.45767,-0.04161 -0.47847,0.06241 -0.22883,0.353651 -0.35365,0.998544 -0.35365,1.643437 0,0.686499 0.14562,1.393801 0.45766,1.726649 z m 0.43687,-4.826296 c 0.18722,0.104015 0.43686,0.104015 0.49927,0.0208 0.0624,-0.104015 0.22883,-0.561681 0.27044,-0.665696 0.0624,-0.124818 0.0624,-0.270439 0.0624,-0.353651 0.0416,-0.104015 -0.12482,-0.270439 -0.39526,-0.332848 -0.20803,-0.08321 -0.43686,-0.04161 -0.43686,0.08321 l -0.0416,0.312045 c -0.0416,0.104015 -0.18723,0.520075 -0.22883,0.582484 -0.10402,0.08321 0.0208,0.270439 0.27044,0.353651 z m -6.40732,5.117538 c 0.0832,0.312045 0.76971,0.582484 0.7489,0.312045 0.0832,-0.603287 0.0832,-0.728105 0.14563,-0.894529 0.49927,-1.435407 2.22592,-2.70439 3.26607,-2.683587 l -0.0208,0.166424 c -0.0208,0.166424 0.27044,0.291242 0.56168,-0.04161 0.14563,-0.166424 -0.14562,-0.603287 -0.62409,-0.686499 -1.14416,-0.187227 -2.68358,1.019347 -3.20366,1.685043 l 0.0208,-0.811317 c 0,-0.124818 -0.12482,-0.332848 -0.31205,-0.436863 -0.20803,-0.104015 -0.41606,-0.104015 -0.41606,0.04161 -0.29124,2.621178 -0.24964,3.162056 -0.16642,3.349283 z m -8.32119,-0.187227 c 0.22883,0.145621 0.47846,0.20803 0.7489,0.20803 1.10256,0 2.47556,-1.060953 3.05804,-1.581028 0.27044,0.748908 0.79052,1.144165 1.47702,1.310589 0.87372,0.20803 2.30913,-0.457666 2.82921,-0.977741 1.14416,-1.144165 0.83212,-1.66424 0.47846,-1.310589 -0.7489,0.83212 -2.53796,1.893073 -3.59891,1.685043 -0.37446,-0.104015 -0.47847,-0.520075 -0.45767,-0.873726 0.0416,-0.395257 0.22883,-0.769711 0.33285,-1.081756 0.14562,-0.249636 -0.56168,-0.707302 -0.6865,-0.478469 l -0.35365,0.478469 h -0.0208 c -0.52007,-0.228833 -1.10255,-0.353651 -1.68504,-0.353651 -0.7281,0 -1.43541,0.187227 -1.99709,0.561681 -0.52007,0.353651 -0.7489,0.811317 -0.7489,1.268983 0,0.436863 0.20803,0.83212 0.62409,1.144165 z m 0.37445,-0.457666 c -0.31205,-0.0208 -0.43686,-0.249636 -0.37445,-0.499272 0.22883,-0.956938 1.60183,-1.352195 2.64198,-1.352195 0.31204,0 0.60328,0.04161 0.81131,0.104015 -0.7281,0.769711 -2.0803,1.622634 -3.07884,1.747452 z m -11.504041,5.346371 c 0.145621,0.187227 0.395257,0.582484 0.62409,0.603287 0.124818,-0.0208 0.166424,-0.08321 0.166424,-0.187227 l -0.06241,-0.104015 c -0.187227,-1.87227 -0.249636,-4.389433 -0.249636,-7.010611 0.62409,-0.0208 1.268983,-0.124818 1.851467,-0.312045 3.619726,2.413148 7.509886,5.658416 9.236536,7.385065 0.10401,0.145621 0.31204,0.166424 0.41606,0.104015 0.12481,-0.06241 0.10401,-0.20803 -0.0208,-0.332848 -3.28687,-3.286874 -5.5544,-5.138341 -8.924484,-7.468277 1.435404,-0.665696 3.619724,-2.059497 5.325564,-3.682131 1.3314,-1.268983 3.14126,-3.682131 3.14126,-5.575204 0,-0.332848 -0.0624,-0.665696 -0.18723,-0.956938 -0.0624,-0.166424 -0.27044,-0.270439 -0.39526,-0.249636 -0.14562,0.0208 -0.16642,0.187227 -0.0624,0.353651 0.10402,0.166424 0.14563,0.353651 0.14563,0.582484 0,1.581028 -2.32994,4.410236 -3.26608,5.283962 -1.68504,1.601831 -3.76534,3.016435 -5.304761,3.723737 -0.644893,-0.353651 -1.310589,-0.728105 -1.934679,-1.04015 0.06241,-3.848555 0.291242,-7.634701 0.665696,-9.860622 0.04161,-0.332848 -0.728105,-0.520075 -0.894529,-0.291242 -0.395257,2.350739 -0.582484,6.074476 -0.603287,9.756607 -1.019347,-0.436863 -1.893073,-0.707302 -2.392345,-0.582484 -0.312045,0.104015 -0.644893,0.582484 -0.62409,0.977741 0.0208,0.956938 1.081756,1.830664 2.392345,2.0803 0.20803,0.04161 0.41606,0.08321 0.62409,0.104015 0.04161,2.621178 0.166424,5.055129 0.332848,6.698566 z m -2.829208,-8.674851 c -0.0208,-0.145621 -0.0208,-0.395257 0.166424,-0.457666 0.395257,-0.145621 1.372998,0.270439 2.329936,0.728105 v 1.081756 c -0.228833,-0.0208 -0.457666,-0.04161 -0.665696,-0.104015 -0.894529,-0.228833 -1.66424,-0.728105 -1.830664,-1.24818 z m 4.098191,1.081756 c 0,0.04161 -0.0208,0.08321 -0.0208,0.124818 -0.249636,0.08321 -0.499272,0.124818 -0.769711,0.145621 V 47.928674 Z M 141.02822,22.24812 c 0.31205,0.124818 0.81132,0.187227 1.33139,0.187227 0.54088,0 1.08176,-0.06241 1.45621,-0.166424 0.54088,-0.145621 0.93614,-0.728105 0.47847,-1.123362 -0.41606,-0.332848 -1.04015,-0.644893 -1.83066,-1.081756 -0.41606,-0.249636 -0.89453,-0.457666 -0.76971,-0.748908 0.22883,-0.540878 2.1219,-0.894529 2.89162,-1.164968 0.16642,-0.20803 -0.24964,-0.603287 -0.58249,-0.561681 -1.06095,0.145621 -3.32848,0.811317 -3.16205,1.913876 0.0832,0.62409 0.66569,0.83212 1.20657,1.144165 0.41606,0.228833 1.20657,0.62409 1.72665,0.894529 -0.54088,0.124818 -1.373,0.228833 -2.0387,0.228833 -0.27043,0 -0.49927,-0.0208 -0.68649,-0.06241 -0.45767,-0.104015 -0.27044,0.41606 -0.0208,0.540878 z m -8.32119,-0.41606 c 0.22883,0.145621 0.47847,0.20803 0.74891,0.20803 1.10256,0 2.47555,-1.060953 3.05804,-1.581028 0.27044,0.748908 0.79051,1.144165 1.47701,1.310589 0.87373,0.20803 2.30913,-0.457666 2.82921,-0.977741 1.14416,-1.144165 0.83212,-1.66424 0.47847,-1.310589 -0.74891,0.83212 -2.53797,1.893073 -3.59892,1.685043 -0.37445,-0.104015 -0.47847,-0.520075 -0.45767,-0.873726 0.0416,-0.395257 0.22884,-0.769711 0.33285,-1.081756 0.14562,-0.249636 -0.56168,-0.707302 -0.6865,-0.478469 l -0.35365,0.478469 h -0.0208 c -0.52008,-0.228833 -1.10256,-0.353651 -1.68504,-0.353651 -0.72811,0 -1.43541,0.187227 -1.99709,0.561681 -0.52008,0.353651 -0.74891,0.811317 -0.74891,1.268983 0,0.436863 0.20803,0.83212 0.62409,1.144165 z m 0.37445,-0.457666 c -0.31204,-0.0208 -0.43686,-0.249636 -0.37445,-0.499272 0.22883,-0.956938 1.60183,-1.352195 2.64198,-1.352195 0.31205,0 0.60329,0.04161 0.81132,0.104015 -0.72811,0.769711 -2.0803,1.622634 -3.07885,1.747452 z m -1.41458,-7.780321 c -0.20803,0.0208 -0.41606,0.0208 -0.60329,0.0208 0.12482,-1.477013 0.24964,-3.058041 0.39526,-3.515707 0.0624,-0.4368634 -0.76971,-0.6656964 -0.76971,-0.3328484 -0.22883,1.1441654 -0.29124,2.4131484 -0.49927,3.8901614 -2.49636,0.104015 -3.99418,0.228833 -5.42959,0.457666 -0.35365,0.06241 0.0624,0.624089 0.45767,0.56168 1.62263,-0.208029 3.20366,-0.291241 4.8679,-0.374453 v 0.08321 c -0.7281,4.347826 -2.60037,6.948201 -3.61972,6.781777 -0.31204,-0.06241 -0.43686,-0.41606 -0.45767,-0.873726 0.0208,-0.41606 0.22884,-0.769711 0.31205,-0.956938 l -0.0208,-0.0208 0.0416,-0.04161 v -0.06241 c 0.14562,-0.249636 -0.56168,-0.707302 -0.6865,-0.478469 v 0.0208 c -0.0208,0 -0.0208,0.0208 -0.0624,0.06241 v 0.04161 l -0.29124,0.353651 h -0.0208 l -0.22883,-0.08321 c -0.58249,-0.166424 -1.10256,-0.228833 -1.56023,-0.228833 -0.85292,0 -1.49781,0.228833 -1.93468,0.561681 -0.33285,0.270439 -0.56168,0.62409 -0.54088,0.998544 -0.0208,0.20803 0.0832,0.457666 0.22884,0.686499 0.14562,0.20803 0.33285,0.395257 0.62409,0.582484 l 0.10401,0.06241 c 0.20803,0.124818 0.41606,0.166424 0.62409,0.166424 0.27044,0 0.54088,-0.08321 0.79052,-0.166424 0.41606,-0.187227 0.89453,-0.478469 1.28978,-0.811317 l 0.33285,-0.249636 0.35365,-0.332848 c 0.10402,0.499272 0.62409,1.268983 1.3938,1.372998 1.12336,0.166424 2.43395,-1.352195 3.22447,-3.661328 -0.0416,0.811317 -0.0416,1.934679 -0.0416,3.162056 0,2.454754 0.0624,5.283962 0.16643,6.719369 0.10401,0.436863 0.7073,1.081756 0.68649,0.582484 -0.0624,-1.144165 -0.10401,-2.683587 -0.10401,-4.389433 0,-3.203662 0.12482,-6.948202 0.29124,-9.402956 0,-0.166424 0.0208,-0.332847 0.0416,-0.520074 0.14562,0 0.29124,0 0.45766,-0.0208 0.87373,-0.04161 2.24673,-0.06241 3.76535,-0.06241 2.7668,0 6.03287,0.08321 7.71791,0.416059 0.16642,0.0208 0.27044,-0.06241 0.24963,-0.228832 -0.0832,-0.124818 -0.29124,-0.332848 -0.47846,-0.41606 -1.41461,-0.312045 -4.8263,-0.41606 -7.73872,-0.41606 -1.28979,0 -2.47556,0.0208 -3.32848,0.06241 z m -9.42376,7.738715 c -0.16642,0 -0.22883,-0.0208 -0.22883,-0.04161 l -0.0832,-0.04161 c -0.14562,-0.124818 -0.18723,-0.291242 -0.18723,-0.41606 0,-0.270439 0.14562,-0.561681 0.47847,-0.811317 0.39526,-0.291242 0.97774,-0.499272 1.72665,-0.499272 0.24963,0 0.52007,0.0208 0.74891,0.06241 l 0.22883,0.04161 -0.0624,0.04161 c -0.22883,0.249636 -0.54088,0.520075 -0.83212,0.748908 -0.41606,0.332848 -0.85292,0.603287 -1.24818,0.769711 -0.22883,0.08321 -0.39526,0.124818 -0.54088,0.145621 z m -6.55294,0.686499 c 0.0832,0.312045 0.76971,0.582484 0.74891,0.312045 0.0832,-0.603287 0.0832,-0.728105 0.14562,-0.894529 0.49927,-1.435407 2.22592,-2.70439 3.26607,-2.683587 L 119.83,18.91964 c -0.0208,0.166424 0.27043,0.291242 0.56168,-0.04161 0.14562,-0.166424 -0.14562,-0.603287 -0.62409,-0.686499 -1.14417,-0.187227 -2.68359,1.019347 -3.20367,1.685043 l 0.0208,-0.811317 c 0,-0.124818 -0.12482,-0.332848 -0.31205,-0.436863 -0.20803,-0.104015 -0.41606,-0.104015 -0.41606,0.04161 -0.29124,2.621178 -0.24963,3.162056 -0.16642,3.349283 z m -4.82628,-0.291242 c 0.39526,0.436863 0.95694,0.561681 1.47701,0.540878 1.43541,-0.06241 3.32848,-1.705846 3.72374,-2.433951 0.24964,-0.457666 0.0416,-0.582484 -0.0416,-0.499272 -0.62409,0.62409 -2.8292,2.28833 -4.11899,2.28833 -0.22883,0 -0.43686,-0.06241 -0.60329,-0.187227 -0.31204,-0.270439 0.10402,-2.621178 0.27044,-2.787602 0.0208,-0.104015 -0.10401,-0.270439 -0.33285,-0.353651 -0.24963,-0.06241 -0.45766,-0.04161 -0.47847,0.06241 -0.22883,0.353651 -0.35365,0.998544 -0.35365,1.643437 0,0.686499 0.14562,1.393801 0.45767,1.726649 z m 0.43686,-4.826296 c 0.18723,0.104015 0.43687,0.104015 0.49927,0.0208 0.0624,-0.104015 0.22884,-0.561681 0.27044,-0.665696 0.0624,-0.124818 0.0624,-0.270439 0.0624,-0.353651 0.0416,-0.104015 -0.12482,-0.270439 -0.39525,-0.332848 -0.20803,-0.08321 -0.43687,-0.04161 -0.43687,0.08321 l -0.0416,0.312045 c -0.0416,0.104015 -0.18723,0.520075 -0.22884,0.582484 -0.10401,0.08321 0.0208,0.270439 0.27044,0.353651 z M 99.838339,27.220037 c 0.145621,0.187227 0.228831,0.478469 0.457671,0.499272 0.12481,-0.0208 0.16642,-0.08321 0.16642,-0.187227 l -0.0624,-0.104015 c -0.16642,-1.768255 -0.24964,-4.223009 -0.24964,-6.760975 v -0.852923 c 0.49928,0.166424 1.04015,0.291242 1.56023,0.353651 l 0.74891,0.0208 0.0624,-0.0208 c 4.11899,-0.228833 7.42667,-2.49636 7.42667,-5.429583 0,-0.728104 -0.20803,-1.497815 -0.6449,-2.288329 -1.56022,-2.8084054 -5.61681,-3.6821314 -8.44601,-3.5573134 h -0.16643 l 0.14562,-0.9153319 c 0.0416,-0.332848 -0.7281,-0.520075 -0.894526,-0.291242 l -0.187227,1.2689829 c -2.850011,0.312045 -6.469733,1.7474524 -7.925943,4.5558574 -0.436863,0.873726 -0.644893,1.830663 -0.644893,2.725192 0,0.998544 0.249636,1.934679 0.728105,2.683587 1.019347,1.581028 2.683587,1.955482 3.910964,1.955482 0.852923,0 1.497816,-0.187227 1.601831,-0.249636 0.20803,-0.145621 0.0208,-0.270439 -0.166424,-0.20803 -0.270439,0.104015 -0.644893,0.145621 -0.956938,0.166424 -2.517163,0.104015 -4.431039,-1.726649 -4.431039,-4.181403 0,-0.769711 0.187227,-1.581028 0.603287,-2.43395 1.581028,-2.641981 4.389433,-3.869358 7.197838,-4.3062214 -0.20803,2.2675274 -0.332848,5.1591434 -0.332848,8.0299574 v 1.24818 c -0.41606,-0.228833 -0.728105,-0.499272 -0.852923,-0.790514 -0.08321,-0.124818 -0.228833,-0.312045 -0.41606,-0.291242 -0.249636,-0.0208 -0.332848,0.08321 -0.228833,0.228833 0.270439,0.561681 0.83212,1.019347 1.497816,1.372998 0.04161,2.933223 0.20803,5.741628 0.499272,7.759519 z M 108.6172,12.449908 c 0.43687,0.686499 0.6449,1.372998 0.6449,2.038694 0,2.517162 -2.89162,4.701477 -6.65696,5.055128 l -0.79052,0.06241 c -0.54087,-0.0208 -1.14416,-0.124818 -1.66424,-0.312045 0.0208,-3.53651 0.18723,-7.177034 0.47847,-9.7358034 l 0.74891,-0.062409 c 0.20803,-0.020803 0.41606,-0.020803 0.62409,-0.020803 2.62118,0 5.15914,0.8529234 6.61535,2.9748284 z m 24.17445,23.297852 c 0.49927,-0.166424 0.64489,-0.436863 0.0416,-0.41606 -0.18722,0 -0.99854,0.08321 -1.97628,0.08321 -0.47847,0 -1.01935,-0.0208 -1.53942,-0.08321 -0.31205,-0.374454 -0.76972,-0.644893 -1.3314,-0.728105 -0.41606,-0.0208 -0.56168,0.20803 -0.64489,0.499272 -0.0416,0 -0.0624,0.0208 -0.10401,0.0208 -0.47847,0.166424 -1.01935,1.164968 -0.87373,2.038694 0.10402,0.582484 0.62409,1.227377 1.3938,1.268983 0.95694,0.06241 1.80986,-0.457666 1.99709,-1.497816 0.0624,-0.312045 0.0416,-0.62409 -0.0416,-0.894529 1.26899,0.06241 2.62118,-0.124818 3.07885,-0.291242 z m -5.13834,-0.166424 0.0416,-0.04161 c 0.29124,0.187227 0.6865,0.312045 1.16497,0.395257 0.33285,0.748908 -0.12482,1.934679 -1.04015,1.976285 -0.39526,0.0208 -0.62409,-0.20803 -0.7281,-0.811317 -0.10402,-0.582484 0.29124,-1.310589 0.56168,-1.518619 z M 114.13138,23.245157 c 0.0624,-0.104015 -0.0832,-0.270439 -0.31205,-0.374454 -0.22883,-0.124818 -0.43686,-0.104015 -0.47847,0.0208 -0.0832,0.20803 -0.20803,1.414604 -0.31204,2.621178 -0.6449,-0.08321 -1.28979,-0.124818 -1.91388,-0.124818 -0.39526,0 -0.76971,0 -1.12336,0.04161 -4.07739,0.312045 -7.6139,2.392345 -7.6139,5.533598 0,0.41606 0.0624,0.852923 0.18723,1.310589 0.83212,2.766799 3.95257,5.075932 6.9274,4.867902 1.14416,-0.104015 1.4354,-0.811317 0.66569,-0.582484 -0.18722,0.06241 -0.43686,0.145621 -0.6865,0.166424 -2.70439,0.166424 -5.47118,-2.0803 -6.11608,-4.243812 -0.12482,-0.436863 -0.18722,-0.852923 -0.18722,-1.24818 0,-2.974829 3.43249,-4.909508 7.30185,-5.20075 0.37445,-0.0208 0.74891,-0.04161 1.14416,-0.04161 0.45767,0 0.91534,0.0208 1.373,0.06241 -0.0624,0.644893 -0.10401,1.268983 -0.12482,1.66424 -0.16642,2.745996 -0.39525,7.343459 -0.43686,10.318288 v 0.852923 c -1.72665,0.936135 -2.39234,1.66424 -2.64198,2.309133 -0.12482,0.499272 -0.0416,0.998544 0.33285,1.45621 0.14562,0.166424 0.37445,0.374454 0.60328,0.520075 0.70731,0.520075 1.70585,0.748908 2.7668,0.748908 0.20803,0 0.41606,0 0.62409,-0.0208 0.49928,-0.0208 1.01935,-0.104015 1.45621,-0.228833 1.87227,-0.41606 3.82776,-1.372998 5.20075,-2.808405 1.08176,-1.081756 1.85147,-2.433951 2.28833,-3.890161 l 0.0416,-0.228833 0.87373,-0.145621 3.03723,-0.395257 c 0.16643,-0.0208 0.18723,-0.04161 0.0832,-0.187227 -0.10402,-0.104015 -0.35366,-0.20803 -1.08176,-0.20803 -0.58248,0 -1.43541,0.06241 -2.7668,0.249636 l 0.0624,-0.436863 c 0.0416,-0.291242 0.0416,-0.603287 0.0416,-0.894529 0,-1.705846 -0.56169,-3.453298 -1.85147,-5.034326 -1.78906,-2.142709 -4.78469,-3.515707 -7.69711,-4.056585 0.0832,-1.019347 0.18723,-2.038694 0.33285,-2.392345 z m 6.71937,6.44893 c 1.18577,1.518619 1.72664,3.224465 1.72664,4.888705 0,0.540878 -0.0624,1.081756 -0.16642,1.601831 h -0.0208 l -0.12482,0.04161 c -4.07739,0.686499 -7.05222,1.497816 -9.07011,2.350739 0.0208,-0.06241 0,-0.124818 0,-0.187227 0,-2.954026 0.27044,-7.343459 0.47847,-10.422303 0.0208,-0.353651 0.0416,-1.04015 0.10402,-1.809861 2.70439,0.41606 5.36717,1.601831 7.07302,3.53651 z m -7.78033,12.544209 c 0.12482,0 0.22884,-0.08321 0.18723,-0.187227 l -0.0208,-0.104015 c -0.0416,-0.04161 -0.0832,-0.228833 -0.0832,-1.726649 v -0.811317 c 1.83066,-0.852923 4.59746,-1.705846 8.52923,-2.433951 l 0.49927,-0.06241 -0.0416,0.104015 c -0.39526,1.227377 -1.12336,2.392345 -2.0595,3.349283 -1.3938,1.393801 -3.28687,2.309133 -5.05512,2.725193 -0.54088,0.104015 -0.99855,0.187227 -1.45621,0.20803 -0.35366,0.04161 -0.72811,0.04161 -0.99855,0.0208 -0.7073,-0.04161 -1.20657,-0.228833 -1.51862,-0.41606 -0.39525,-0.312045 -0.62409,-0.728105 -0.45766,-1.268983 0.12481,-0.603287 0.76971,-1.206574 1.85146,-1.830664 0.0624,0.665696 -0.0208,2.392345 0.62409,2.433951 z" />
          </g>
        </g>
      </g>
    </g>
  </g>
</svg>
